<svg width="674" height="136" viewBox="0 0 674 136" fill="none" xmlns="http://www.w3.org/2000/svg">
<path d="M96.9197 113.569H161.628V96.4899H116.533V75.5351H153.898V58.4555H116.533V39.0796H161.915V22H96.9197V113.569ZM239.508 79.6974L197.132 22H167.927L177.09 33.6256V113.856H196.559V53.7192L240.367 113.569H259.121V22H239.508V79.6974ZM67.4286 66.493C76.0183 64.9142 83.1763 56.8768 83.1763 45.5382C83.1763 33.3385 74.3003 22 56.6916 22H0L8.87596 33.3385V113.713H58.6958C76.3046 113.713 85.4669 102.661 85.4669 88.883C85.0374 77.5445 77.3067 67.7847 67.4286 66.493ZM28.3458 39.2231H52.8263C59.4116 39.2231 63.5633 43.0983 63.5633 48.8393C63.5633 54.5803 59.4116 58.4555 52.8263 58.4555H28.3458V39.2231ZM53.6852 96.6334H28.3458V75.5351H53.6852C61.1296 75.5351 65.2812 80.2715 65.2812 86.0125C65.2812 92.6147 60.8432 96.4899 53.6852 96.6334ZM545.155 79.6974H555.32V90.4618C550.023 94.7676 543.438 97.2075 536.566 97.351C520.246 97.351 508.793 84.8643 508.793 68.0718C508.793 51.2793 520.389 38.7925 536.566 38.7925C545.012 38.7925 552.886 43.2418 557.467 50.4181L572.929 41.8066C566.343 31.3292 554.747 22 536.423 22C510.511 22 489.037 39.9407 489.037 67.7847C489.037 95.6287 510.224 113.569 536.423 113.569C550.739 113.856 564.339 107.685 573.788 97.064V63.1919H531.985L545.155 79.6974ZM457.112 79.6974L414.593 22H385.531L394.551 33.6256V113.856H414.164V53.7192L457.971 113.569H476.582V22H457.112V79.6974ZM638.496 22H600.845L609.864 33.6256L608.289 38.0749L579.085 113.856H601.131L606.858 98.3557H646.227L651.953 113.856H674L638.496 22ZM611.868 81.1326L626.184 41.663L640.5 81.1326H611.868ZM354.609 22H374.222V114H354.609V22ZM339.004 37.7878V22H270.144V39.0796H313.379L270.144 97.9251V113.569H339.72V96.4899H295.483L339.004 37.7878Z" fill="white"/>
</svg>
