<svg width="616" height="206" viewBox="0 0 616 206" fill="none" xmlns="http://www.w3.org/2000/svg">
<path d="M419.368 128.488V0H445.196V128.488H419.368Z" fill="#F7A600"/>
<path d="M118.368 166.655H63V38.1665H116.144C141.971 38.1665 157.017 52.247 157.017 74.2585C157.017 88.5113 147.351 97.724 140.661 100.793C148.649 104.396 158.868 112.517 158.868 129.667C158.868 153.661 141.971 166.655 118.368 166.655ZM114.098 60.5458H88.8276V90.1435H114.092C125.052 90.1435 131.184 84.1895 131.184 75.3389C131.184 66.5056 125.057 60.5458 114.098 60.5458ZM115.764 112.701H88.8333V144.287H115.776C127.483 144.287 133.046 137.069 133.046 128.402C133.046 119.741 127.471 112.701 115.776 112.701H115.764ZM237.644 113.965V166.655H212V113.965L172.236 38.1665H200.293L225.006 89.9596L249.345 38.1665H277.397L237.644 113.965ZM350.621 166.655H295.253V38.1665H348.391C374.218 38.1665 389.27 52.247 389.27 74.2585C389.27 88.5113 379.603 97.724 372.914 100.793C380.902 104.396 391.121 112.517 391.121 129.667C391.121 153.661 374.224 166.655 350.621 166.655ZM346.351 60.5458H321.08V90.1435H346.351C357.31 90.1435 363.443 84.1895 363.443 75.3389C363.443 66.5056 357.31 60.5458 346.351 60.5458ZM348.017 112.701H321.075V144.287H348.017C359.73 144.287 365.293 137.069 365.293 128.402C365.293 119.741 359.73 112.701 348.017 112.701ZM528.437 60.5516V166.667H502.609V60.5458H468.058V38.1665H563V60.5458L528.437 60.5516Z" fill="#15192A"/>
</svg>
