<svg width="500" height="115" viewBox="0 0 500 115" fill="none" xmlns="http://www.w3.org/2000/svg">
<path fill-rule="evenodd" clip-rule="evenodd" d="M413.94 34.04H428.14V19.84H413.94V34.04ZM338.46 57.7C341.18 50.5 348.12 45.38 356.26 45.38C364.4 45.38 371.36 50.5 374.06 57.7H338.46ZM356.26 32.16C338.46 32.16 324.02 46.6 324.02 64.4C324.02 82.2 338.46 96.64 356.26 96.64C368.48 96.64 379.1 89.84 384.56 79.84L372.66 74.06C369.34 79.68 363.24 83.44 356.26 83.44C347.44 83.44 340.02 77.44 337.86 69.28H374.66V69.3H388.14C388.38 67.7 388.5 66.06 388.5 64.4C388.5 46.6 374.08 32.16 356.26 32.16ZM392.26 94.92H406.46V80.72H392.26V94.92ZM413.94 94.92H428.14V40.28H413.94V94.92ZM467.76 83.44C457.24 83.44 448.72 74.92 448.72 64.4C448.72 53.88 457.24 45.36 467.76 45.36C478.28 45.36 486.8 53.88 486.8 64.4C486.8 74.92 478.28 83.44 467.76 83.44ZM467.76 32.16C449.96 32.16 435.52 46.6 435.52 64.4C435.52 82.2 449.96 96.64 467.76 96.64C485.56 96.64 500 82.2 500 64.4C500 46.6 485.56 32.16 467.76 32.16ZM170.88 52.52V67.2H190.74C189.7 71.4 187.66 75.16 184.72 78.16C180.28 82.7 174.14 85.18 167.42 85.18C153.46 85.18 142.1 73.82 142.1 59.84C142.1 45.88 153.46 34.5 167.42 34.5C174.9 34.5 181.78 37.7 186.54 43.22L197.9 33.92C190.36 25.08 179.18 19.8 167.42 19.8C145.36 19.8 127.42 37.76 127.42 59.82C127.42 81.88 145.36 99.84 167.42 99.84C178.14 99.84 188 95.98 195.22 88.6C201.28 82.4 205.3 73.76 206.06 65.12C206.44 60.9 206.48 56.7 206.24 52.48L170.88 52.52ZM243.2 83.44C232.7 83.44 224.16 74.92 224.16 64.4C224.16 53.88 232.68 45.36 243.2 45.36C253.72 45.36 262.24 53.88 262.24 64.4C262.24 74.92 253.72 83.44 243.2 83.44ZM262.24 38.44C256.9 34.52 250.32 32.22 243.2 32.22C225.4 32.22 210.98 46.66 210.98 64.46C210.98 82.26 225.42 96.7 243.2 96.7C250.32 96.7 256.9 94.38 262.24 90.48V94.94H275.44V33.98H262.24V38.44ZM303.76 19.84H290.56V34.04H282.66V46.5H290.56V79.1C290.56 82.46 290.98 85.3 291.82 87.52C292.64 89.72 293.92 91.44 295.42 92.78C296.94 94.14 298.72 95.2 300.84 95.82C303 96.42 305.36 96.66 307.88 96.66C310.48 96.66 312.8 96.4 314.76 95.86C316.6 95.36 318.36 94.66 319.98 93.78V83.74C317.38 84.86 314.94 85.28 312.16 85.4C309.22 85.54 307.5 84.7 306.06 83.32C304.54 81.88 303.74 80 303.74 76.86V46.5H319.98V34.04H303.74V19.84H303.76Z" fill="black"/>
<path fill-rule="evenodd" clip-rule="evenodd" d="M57.24 88.74C39.86 88.74 25.76 74.64 25.76 57.26C25.76 39.88 39.86 25.78 57.24 25.78V0C25.62 0 0 25.64 0 57.26C0 88.88 25.62 114.5 57.24 114.5C88.84 114.5 114.48 88.86 114.48 57.26H88.72C88.72 74.66 74.62 88.74 57.24 88.74Z" fill="#2354E6"/>
<path fill-rule="evenodd" clip-rule="evenodd" d="M57.2402 57.26H88.7202V25.78H57.2402V57.26Z" fill="#17E6A1"/>
</svg>
