<svg width="616" height="259" viewBox="0 0 616 259" fill="none" xmlns="http://www.w3.org/2000/svg">
<path d="M145.917 59.1645C146.491 30.7801 130.418 6.04633 122.046 0.101882C122.008 0.063604 121.263 -0.337741 121.32 0.770883C121.32 0.789926 121.301 0.789926 121.301 0.809065C120.441 54.4246 92.8811 68.8748 77.9167 88.524C44.6618 132.218 72.4122 182.069 108.362 191.511C108.974 191.664 110.636 192.161 113.79 192.81C115.433 193.155 115.911 191.759 114.707 189.676C110.407 182.202 102.762 169.587 101.253 153.378C97.8124 115.742 145.248 92.1937 145.917 59.1645Z" fill="black"/>
<path d="M164.036 77.3428C163.749 77.1323 163.348 77.1514 163.31 77.5142C162.546 84.3384 155.493 98.483 146.205 111.71C114.937 156.303 130.686 176.525 142.918 190.556C145.172 193.155 146.3 192.582 147.485 190.728C148.594 188.969 150.275 186.733 157.5 183.312C158.628 182.776 185.92 168.288 188.882 135.297C191.73 103.376 171.26 83.1911 164.036 77.3428Z" fill="#008CD6"/>
<path d="M326.393 69.2183V186.56H301.223V139.158H252.85V186.56H227.049V69.2183H252.85V116.621H301.223V69.2183H326.393Z" fill="black"/>
<path d="M442.767 69.2183V92.4228H430.784H406.626V186.541H380.73V92.4228H357.221H345.238V69.2183H442.767Z" fill="black"/>
<path fill-rule="evenodd" clip-rule="evenodd" d="M534.428 186.675L504.842 145.847L475.487 186.503L446.78 186.541L490.299 126.637L449.226 69.2183H477.914L563 186.675H534.428Z" fill="black"/>
<path d="M512.888 95.4812L527.088 115.207L560.726 69.1992H532.191L512.888 95.4812Z" fill="#008CD6"/>
</svg>
