<svg width="500" height="116" viewBox="0 0 500 116" fill="none" xmlns="http://www.w3.org/2000/svg">
<path d="M393.537 57.7129C393.537 54.7657 393.537 51.9933 393.441 49.433C393.376 47.0177 393.137 44.6101 392.726 42.2292C392.341 40.0551 391.661 37.9436 390.706 35.953C389.697 33.9007 388.349 32.0333 386.719 30.4296C384.406 28.0608 381.654 26.1649 378.617 24.8478C375.331 23.5171 371.812 22.8574 368.268 22.9077C364.71 22.8617 361.178 23.5211 357.876 24.8478C354.821 26.1469 352.052 28.0345 349.727 30.4031C348.1 32.0058 346.757 33.8736 345.756 35.9265C344.808 37.9175 344.139 40.0294 343.767 42.2027C343.365 44.5843 343.135 46.9918 343.078 49.4065C343.015 51.9668 342.983 54.7391 342.999 57.6864C343.015 60.6337 342.999 63.3848 343.078 65.961C343.135 68.3757 343.365 70.7832 343.767 73.1648C344.139 75.3381 344.808 77.45 345.756 79.441C346.761 81.4916 348.103 83.3587 349.727 84.9644C352.048 87.3349 354.819 89.2197 357.876 90.5091C361.175 91.8445 364.708 92.5077 368.268 92.4598C371.814 92.512 375.334 91.8486 378.617 90.5091C381.655 89.2095 384.408 87.3256 386.719 84.9644C388.345 83.3577 389.693 81.4909 390.706 79.441C391.661 77.4504 392.341 75.3389 392.726 73.1648C393.133 70.7906 393.368 68.3902 393.431 65.9822C393.51 63.406 393.547 60.6496 393.526 57.7076L393.537 57.7129ZM380.176 57.7129C380.176 60.9782 380.128 63.6975 380.017 65.8603C379.954 67.6368 379.777 69.4074 379.487 71.1611C379.288 72.3295 378.931 73.4654 378.426 74.5377C378.016 75.402 377.48 76.2005 376.836 76.9072C375.84 78.0463 374.606 78.9513 373.22 79.5576C371.66 80.2248 369.98 80.564 368.284 80.5544C366.579 80.5617 364.891 80.2226 363.321 79.5576C361.901 78.9626 360.633 78.0569 359.61 76.9072C358.961 76.2037 358.424 75.4045 358.019 74.5377C357.528 73.4643 357.189 72.3279 357.012 71.1611C356.729 69.4064 356.552 67.6363 356.482 65.8603C356.386 63.6975 356.338 60.9818 356.338 57.7129C356.338 54.4476 356.386 51.723 356.482 49.5602C356.552 47.7843 356.729 46.0141 357.012 44.2594C357.189 43.0926 357.528 41.9562 358.019 40.8828C358.426 40.0167 358.962 39.2177 359.61 38.5133C360.635 37.3652 361.902 36.4598 363.321 35.8629C364.888 35.1904 366.578 34.851 368.284 34.8664C369.981 34.8487 371.663 35.1883 373.22 35.8629C374.605 36.471 375.839 37.3758 376.836 38.5133C377.479 39.2209 378.015 40.0193 378.426 40.8828C378.931 41.9551 379.288 43.091 379.487 44.2594C379.777 46.0132 379.954 47.7838 380.017 49.5602C380.134 51.7177 380.176 54.4423 380.176 57.7129Z" fill="#23AF91"/>
<path d="M500 24.6783C499.994 24.0337 499.473 23.5126 498.828 23.5068H487.806C487.16 23.5097 486.637 24.0325 486.634 24.6783V65.3886L459.753 23.8355C459.573 23.5545 459.414 23.5068 459.016 23.5068H448.794C448.15 23.5154 447.631 24.0349 447.622 24.6783V90.7372C447.631 91.3797 448.151 91.8977 448.794 91.9034H459.811C460.454 91.9005 460.975 91.3801 460.978 90.7372V49.9208L487.864 91.5694C488.049 91.8504 488.198 91.8981 488.601 91.8981H498.818C499.462 91.8952 499.984 91.3756 499.989 90.7319L500 24.6783Z" fill="#23AF91"/>
<path d="M426.112 24.6783C426.109 24.0325 425.586 23.5097 424.94 23.5068H413.928C413.282 23.5097 412.759 24.0325 412.756 24.6783V90.7319C412.759 91.3777 413.282 91.9005 413.928 91.9034H424.94C425.586 91.9005 426.109 91.3777 426.112 90.7319V24.6783Z" fill="#23AF91"/>
<path d="M294.285 57.713C294.285 54.4265 294.322 51.6912 294.417 49.5126C294.482 47.7362 294.659 45.9658 294.947 44.2118C295.965 38.3279 300.472 34.8558 306.225 34.8558C309.978 34.8876 313.382 36.2764 315.556 39.4357C316.54 40.9107 317.258 42.547 317.677 44.2701C317.709 44.4516 317.875 44.5782 318.059 44.5616H331.022C331.207 44.5616 331.276 44.4344 331.244 44.2542C329.829 36.234 325.55 29.0302 317.99 25.4627C314.274 23.7427 310.218 22.8821 306.124 22.9449C298.825 22.9449 292.676 25.4433 287.678 30.4402C284.825 33.2206 282.877 36.7974 282.09 40.7026C281.327 44.5475 280.941 50.2158 280.934 57.7077C280.927 65.1995 281.313 70.8661 282.09 74.7074C282.871 78.6176 284.813 82.2016 287.662 84.991C292.657 89.9844 298.805 92.4811 306.108 92.4811C310.202 92.543 314.257 91.6843 317.974 89.9685C325.534 86.401 329.813 79.1972 331.229 71.1771C331.26 70.9915 331.191 70.8696 331.006 70.8696H318.037C317.853 70.8503 317.685 70.9782 317.656 71.1612C317.236 72.8823 316.518 74.5167 315.535 75.9902C313.361 79.1707 309.957 80.5436 306.203 80.5701C300.451 80.5701 295.944 77.1034 294.926 71.2195C294.638 69.4654 294.461 67.695 294.396 65.9186C294.322 63.7294 294.285 60.9889 294.285 57.713Z" fill="#23AF91"/>
<path d="M157.367 24.6783C157.364 24.0325 156.842 23.5097 156.196 23.5068H145.183C144.538 23.5097 144.015 24.0325 144.012 24.6783V90.7372C144.018 91.3809 144.54 91.9005 145.183 91.904H156.196C156.839 91.9005 157.362 91.3809 157.367 90.7372V71.3468L166.206 60.7822L184.36 91.5535C184.499 91.7804 184.751 91.9142 185.017 91.904H198.399C199.014 91.904 199.125 91.5217 198.818 90.9969L175.049 50.7107L196.856 24.5564C197.296 24.0263 197.111 23.5227 196.421 23.5227H181.793C181.615 23.5123 181.444 23.5919 181.337 23.7348L157.367 52.4758V24.6783Z" fill="#23AF91"/>
<path d="M237.596 80.5702C231.398 80.5702 225.778 74.8347 225.778 67.9861V24.6783C225.775 24.0325 225.252 23.5097 224.606 23.5068H213.594C212.948 23.5097 212.425 24.0325 212.422 24.6783V67.8164C212.422 82.8973 223.705 92.4812 237.596 92.4812C251.487 92.4812 262.77 82.8973 262.77 67.8164V24.6783C262.764 24.0337 262.243 23.5126 261.598 23.5068H250.58C249.937 23.5126 249.417 24.0346 249.414 24.6783V67.9861C249.414 74.8294 243.789 80.5702 237.596 80.5702Z" fill="#23AF91"/>
<path fill-rule="evenodd" clip-rule="evenodd" d="M33.3174 57.713L67.5044 91.898L89.0833 70.3236C92.9419 66.85 98.8451 67.0045 102.517 70.6753C106.188 74.346 106.343 80.248 102.868 84.1058L74.3916 112.582C70.5665 116.343 64.4316 116.343 60.6065 112.582L19.5218 71.4951V95.916C19.5218 101.306 15.1517 105.675 9.76088 105.675C4.3701 105.675 0 101.306 0 95.916V19.4781C0 14.0885 4.3701 9.71929 9.76088 9.71929C15.1517 9.71929 19.5218 14.0885 19.5218 19.4781V43.899L60.6012 2.82291C64.4252 -0.940971 70.5624 -0.940971 74.3863 2.82291L102.884 31.2936C106.359 35.1514 106.204 41.0534 102.533 44.7241C98.8611 48.3949 92.9578 48.5494 89.0992 45.0758L67.5203 23.5014L33.3174 57.713ZM67.5203 47.9435C63.5676 47.9414 60.0029 50.3203 58.4888 53.9707C56.9747 57.6211 57.8094 61.824 60.6036 64.6191C63.3978 67.4142 67.6011 68.251 71.2531 66.7392C74.9052 65.2274 77.2865 61.6648 77.2865 57.713C77.2879 55.1219 76.2597 52.6365 74.4282 50.8034C72.5967 48.9703 70.1118 47.9396 67.5203 47.9382V47.9435Z" fill="#23AF91"/>
</svg>
