<svg width="500" height="103" viewBox="0 0 500 103" fill="none" xmlns="http://www.w3.org/2000/svg">
<path d="M163.326 72.1955L127.43 9.76337C119.561 -3.24904 100.37 -3.38748 92.7768 10.3171L55.0869 75.2409C48.0455 87.1457 56.7432 102.096 70.8256 102.096H146.344C160.564 102.096 171.195 86.7302 163.326 72.1955Z" fill="#3156AA"/>
<path d="M111.553 77.0406L109.344 73.1645C107.273 69.5652 102.717 61.8131 102.717 61.8131L72.3442 8.93307C64.4748 -2.83348 45.8369 -3.80249 37.9675 11.0095L2.62417 72.3339C-4.693 85.2078 4.00476 101.958 19.8817 102.097H94.9859H127.016H146.068C126.602 102.235 120.389 92.1292 111.553 77.0406Z" fill="#1972E2"/>
<path d="M111.553 77.0401L109.344 73.1645C107.274 69.5652 102.717 61.8131 102.717 61.8131L83.113 27.2056L54.9488 75.3793C47.9081 87.2842 56.6057 102.234 70.688 102.234H94.8481H126.878H146.068C126.464 102.096 120.389 92.1292 111.553 77.0401Z" fill="url(#paint0_linear_107_48)"/>
<path d="M285.179 96.5568V24.4348H344.958V29.003C344.958 32.6022 342.059 35.5092 338.47 35.5092H300.089V54.8892H338.47V65.9639H300.089V85.3437H338.47C342.059 85.3437 344.958 88.2507 344.958 91.8501V96.4184L285.179 96.5568Z" fill="#151617"/>
<path d="M430.832 24.4348H416.75C414.126 24.4348 411.78 25.5422 410.123 27.6187L393.142 49.0753L376.16 27.7571C374.504 25.6807 372.156 24.5732 369.534 24.5732H355.451L384.029 60.5649L355.451 96.5568H369.534C372.156 96.5568 374.504 95.4494 376.16 93.373L393.142 72.0547L410.261 93.5114C411.918 95.4494 414.265 96.6951 416.888 96.6951H430.97L402.391 60.7033L430.832 24.4348Z" fill="#151617"/>
<path d="M238.377 88.9479L257.981 54.6174V96.4233H272.892V24.3013H263.642C260.743 24.3013 257.981 25.824 256.601 28.4541L233.131 71.3673L209.661 28.4541C208.28 25.824 205.519 24.3013 202.619 24.3013H193.37V96.4233H208.28V54.6174L227.884 88.9479H238.377Z" fill="#151617"/>
<path d="M469.765 97.3883C449.056 97.665 432.213 81.3301 432.075 60.5658C432.075 49.2145 435.526 39.8013 442.015 33.2951C448.504 26.9273 457.892 23.4666 469.075 23.4666C482.19 23.4666 492.545 28.0348 500 36.8943L495.306 40.9087C492.407 43.4005 488.127 43.5389 484.951 41.1856C480.81 38.0017 475.563 36.479 469.627 36.479C454.992 36.479 446.295 45.3385 446.295 60.2891C446.295 75.3777 455.268 84.6528 469.627 84.6528C475.701 84.6528 480.81 82.9915 484.951 79.9461C487.989 77.5924 492.268 77.7313 495.306 80.2228L500 84.2372C492.545 92.9583 482.605 97.3883 469.765 97.3883Z" fill="#151617"/>
<defs>
<linearGradient id="paint0_linear_107_48" x1="44.9254" y1="53.4905" x2="132.233" y2="85.6679" gradientUnits="userSpaceOnUse">
<stop stop-color="#264CA2" stop-opacity="0"/>
<stop offset="1" stop-color="#234588"/>
</linearGradient>
</defs>
</svg>
