<svg width="616" height="150" viewBox="0 0 616 150" fill="none" xmlns="http://www.w3.org/2000/svg">
<path d="M209.648 0H66.3325C65.4486 0 64.601 0.3509 63.9762 0.976349C63.3509 1.60113 63 2.44889 63 3.33349V146.664C63 147.548 63.3509 148.396 63.9762 149.02C64.601 149.646 65.4486 149.997 66.3325 149.997H209.648C210.532 149.997 211.38 149.646 212.005 149.02C212.63 148.396 212.981 147.548 212.981 146.664V3.33349C212.981 2.44889 212.63 1.60113 212.005 0.976349C211.38 0.3509 210.532 0 209.648 0ZM162.987 96.6647C162.987 97.5486 162.636 98.3964 162.011 99.0219C161.386 99.6466 160.539 99.9982 159.655 99.9982H116.326C115.443 99.9982 114.595 99.6466 113.969 99.0219C113.345 98.3964 112.994 97.5486 112.994 96.6647V53.3319C112.994 52.448 113.345 51.6002 113.969 50.9754C114.595 50.35 115.443 49.9991 116.326 49.9991H159.655C160.539 49.9991 161.386 50.35 162.011 50.9754C162.636 51.6002 162.987 52.448 162.987 53.3319V96.6647Z" fill="black"/>
<path d="M509.694 50.0045H466.366C464.525 50.0045 463.033 51.4964 463.033 53.3373V96.6701C463.033 98.5109 464.525 100.004 466.366 100.004H509.694C511.534 100.004 513.027 98.5109 513.027 96.6701V53.3373C513.027 51.4964 511.534 50.0045 509.694 50.0045Z" fill="black"/>
<path d="M459.68 0.00402589H416.352C414.511 0.00402589 413.019 1.49599 413.019 3.33752V46.6696C413.019 48.5105 414.511 50.0031 416.352 50.0031H459.68C461.521 50.0031 463.013 48.5105 463.013 46.6696V3.33752C463.013 1.49599 461.521 0.00402589 459.68 0.00402589Z" fill="black"/>
<path d="M559.668 0.00402589H516.339C514.499 0.00402589 513.006 1.49599 513.006 3.33752V46.6696C513.006 48.5105 514.499 50.0031 516.339 50.0031H559.668C561.508 50.0031 563 48.5105 563 46.6696V3.33752C563 1.49599 561.508 0.00402589 559.668 0.00402589Z" fill="black"/>
<path d="M459.68 100.001H416.352C414.511 100.001 413.019 101.493 413.019 103.334V146.666C413.019 148.507 414.511 150 416.352 150H459.68C461.521 150 463.013 148.507 463.013 146.666V103.334C463.013 101.493 461.521 100.001 459.68 100.001Z" fill="black"/>
<path d="M559.668 100.001H516.339C514.499 100.001 513.006 101.493 513.006 103.334V146.666C513.006 148.507 514.499 150 516.339 150H559.668C561.508 150 563 148.507 563 146.666V103.334C563 101.493 561.508 100.001 559.668 100.001Z" fill="black"/>
<path d="M384.626 0.00402589H341.299C339.458 0.00402589 337.965 1.49599 337.965 3.33752V46.6696C337.965 48.5105 339.458 50.0031 341.299 50.0031H384.626C386.467 50.0031 387.959 48.5105 387.959 46.6696V3.33752C387.959 1.49599 386.467 0.00402589 384.626 0.00402589Z" fill="black"/>
<path d="M384.626 100.001H341.299C339.458 100.001 337.965 101.493 337.965 103.334V146.666C337.965 148.507 339.458 150 341.299 150H384.626C386.467 150 387.959 148.507 387.959 146.666V103.334C387.959 101.493 386.467 100.001 384.626 100.001Z" fill="black"/>
<path d="M337.965 53.2944C337.965 52.4105 337.614 51.5627 336.989 50.9379C336.364 50.3125 335.516 49.9616 334.632 49.9616H287.972V3.33349C287.972 2.44889 287.62 1.60113 286.995 0.976349C286.37 0.3509 285.522 0 284.638 0H241.311C240.426 0 239.579 0.3509 238.954 0.976349C238.329 1.60113 237.978 2.44889 237.978 3.33349V146.589C237.978 147.473 238.329 148.321 238.954 148.945C239.579 149.571 240.426 149.922 241.311 149.922H284.638C285.522 149.922 286.37 149.571 286.995 148.945C287.62 148.321 287.972 147.473 287.972 146.589V99.9607H334.632C335.516 99.9607 336.364 99.6091 336.989 98.9843C337.614 98.3589 337.965 97.5112 337.965 96.6272V53.2944Z" fill="black"/>
</svg>
